# File produced by Open Asset Import Library (http://www.assimp.sf.net)
# (assimp v3.1.187496374)

mtllib Pixel.obj.mtl

# 16 vertex positions
v  346.27 -1528.2 1.5
v  346.27 -1528.2 -3.5
v  346.27 -1529.7 1.5
v  346.27 -1529.7 -3.5
v  351.27 -1528.2 -3.5
v  351.27 -1529.7 -3.5
v  351.27 -1528.2 1.5
v  351.27 -1529.7 1.5
v  332.103 -1528 5
v  332.103 -1528 -7
v  332.103 -1528.2 5
v  332.103 -1528.2 -7
v  365.436 -1528 5
v  365.436 -1528.2 5
v  365.436 -1528 -7
v  365.436 -1528.2 -7

# 0 UV coordinates

# 6 vertex normals
vn -1 -0 -0
vn 0 0 -1
vn 0 0 1
vn 1 0 0
vn 0 -1 0
vn 0 1 0

# Mesh '<STL_BINARY>' with 28 faces
g <STL_BINARY>
usemtl DefaultMaterial
f  1//1 2//1 3//1
f  3//1 2//1 4//1
f  2//2 5//2 4//2
f  4//2 5//2 6//2
f  7//3 1//3 8//3
f  8//3 1//3 3//3
f  5//4 7//4 6//4
f  6//4 7//4 8//4
f  6//5 8//5 4//5
f  4//5 8//5 3//5
f  9//1 10//1 11//1
f  11//1 10//1 12//1
f  13//3 9//3 14//3
f  14//3 9//3 11//3
f  15//4 13//4 16//4
f  16//4 13//4 14//4
f  10//2 15//2 12//2
f  12//2 15//2 16//2
f  2//5 12//5 5//5
f  2//5 1//5 12//5
f  5//5 12//5 16//5
f  12//5 1//5 11//5
f  5//5 16//5 14//5
f  14//5 7//5 5//5
f  11//5 7//5 14//5
f  11//5 1//5 7//5
f  15//6 10//6 13//6
f  13//6 10//6 9//6

